<?xml version="1.0" encoding="UTF-8" standalone="no"?>
<svg
   xmlns:dc="http://purl.org/dc/elements/1.1/"
   xmlns:cc="http://creativecommons.org/ns#"
   xmlns:rdf="http://www.w3.org/1999/02/22-rdf-syntax-ns#"
   xmlns:svg="http://www.w3.org/2000/svg"
   xmlns="http://www.w3.org/2000/svg"
   xmlns:sodipodi="http://sodipodi.sourceforge.net/DTD/sodipodi-0.dtd"
   xmlns:inkscape="http://www.inkscape.org/namespaces/inkscape"
   width="12"
   height="9.5"
   viewBox="0 0 12 9.5"
   version="1.1"
   id="svg14"
   sodipodi:docname="repeat-on_s.svg"
   inkscape:version="0.92.4 (5da689c313, 2019-01-14)">
  <metadata
     id="metadata18">
    <rdf:RDF>
      <cc:Work
         rdf:about="">
        <dc:format>image/svg+xml</dc:format>
        <dc:type
           rdf:resource="http://purl.org/dc/dcmitype/StillImage" />
        <dc:title>Fill 39</dc:title>
      </cc:Work>
    </rdf:RDF>
  </metadata>
  <sodipodi:namedview
     pagecolor="#ffffff"
     bordercolor="#666666"
     borderopacity="1"
     objecttolerance="10"
     gridtolerance="10"
     guidetolerance="10"
     inkscape:pageopacity="0"
     inkscape:pageshadow="2"
     inkscape:window-width="2870"
     inkscape:window-height="1186"
     id="namedview16"
     showgrid="false"
     inkscape:zoom="12.421053"
     inkscape:cx="12"
     inkscape:cy="9.5"
     inkscape:window-x="0"
     inkscape:window-y="0"
     inkscape:window-maximized="0"
     inkscape:current-layer="svg14" />
  <!-- Generator: Sketch 41.2 (35397) - http://www.bohemiancoding.com/sketch -->
  <title
     id="title2">Fill 39</title>
  <desc
     id="desc4">Created with Sketch.</desc>
  <defs
     id="defs6" />
  <g
     id="05.100.00-OpenSource-Amplitude"
     style="fill:none;fill-rule:evenodd;stroke:none;stroke-width:1"
     transform="scale(0.5)">
    <g
       id="HD_05.100.00-521Website_OpenSource-Amplitude"
       transform="translate(-427,-792)"
       style="fill:#00a0ff">
      <g
         id="Lead-in">
        <g
           id="Player"
           transform="translate(368,359)">
          <g
             id="Controllers/Status/Info"
             transform="translate(0,357)">
            <path
               d="M 75.9215,83.2656 C 75.717875,83.4746 75.436625,83.6 75.126125,83.6 74.50475,83.6 74.0015,83.0908 74.0015,82.46 c 0,-0.3154 0.125625,-0.6004 0.32925,-0.8056 L 75.035,80.94 H 65.75 c -2.485125,0 -4.5,2.0406 -4.5,4.56 v 2.66 c 0,0.6308 -0.503625,1.14 -1.125,1.14 C 59.504,89.3 59,88.7908 59,88.16 V 85.5 c 0,-3.7772 3.022125,-6.84 6.75,-6.84 h 9.283125 L 74.33075,77.9456 C 74.127125,77.7404 74.0015,77.4554 74.0015,77.14 c 0,-0.6308 0.50325,-1.14 1.124625,-1.14 0.3105,0 0.59175,0.1292 0.795375,0.3344 l 2.62425,2.66 c 0.203625,0.2052 0.32925,0.4902 0.32925,0.8056 0,0.3154 -0.125625,0.6004 -0.32925,0.8056 z M 76.25,92.34 h -9.28275 l 0.702375,0.7144 c 0.20325,0.2052 0.32925,0.4902 0.32925,0.8056 0,0.6308 -0.503625,1.14 -1.124625,1.14 -0.3105,0 -0.59175,-0.1292 -0.795375,-0.3344 l -2.62425,-2.66 C 63.251,91.8004 63.125,91.5154 63.125,91.2 c 0,-0.3154 0.126,-0.6004 0.329625,-0.8056 l 2.62425,-2.66 C 66.2825,87.5254 66.56375,87.4 66.87425,87.4 c 0.621,0 1.124625,0.5092 1.124625,1.14 0,0.3154 -0.126,0.6004 -0.32925,0.8056 L 66.965375,90.06 H 76.25 c 2.4855,0 4.5,-2.0406 4.5,-4.56 v -2.66 c 0,-0.6308 0.503625,-1.14 1.125,-1.14 0.621375,0 1.125,0.5092 1.125,1.14 v 2.66 c 0,3.7772 -3.02175,6.84 -6.75,6.84 z"
               id="Fill-39"
               inkscape:connector-curvature="0" />
          </g>
        </g>
      </g>
    </g>
  </g>
</svg>
