<?xml version="1.0" encoding="UTF-8" standalone="no"?>
<svg
   xmlns:dc="http://purl.org/dc/elements/1.1/"
   xmlns:cc="http://creativecommons.org/ns#"
   xmlns:rdf="http://www.w3.org/1999/02/22-rdf-syntax-ns#"
   xmlns:svg="http://www.w3.org/2000/svg"
   xmlns="http://www.w3.org/2000/svg"
   xmlns:sodipodi="http://sodipodi.sourceforge.net/DTD/sodipodi-0.dtd"
   xmlns:inkscape="http://www.inkscape.org/namespaces/inkscape"
   width="11.5"
   height="10"
   viewBox="0 0 11.5 10"
   version="1.1"
   id="svg14"
   sodipodi:docname="shuffle-off_s.svg"
   inkscape:version="0.92.4 (5da689c313, 2019-01-14)">
  <metadata
     id="metadata18">
    <rdf:RDF>
      <cc:Work
         rdf:about="">
        <dc:format>image/svg+xml</dc:format>
        <dc:type
           rdf:resource="http://purl.org/dc/dcmitype/StillImage" />
        <dc:title>Fill 83</dc:title>
      </cc:Work>
    </rdf:RDF>
  </metadata>
  <sodipodi:namedview
     pagecolor="#ffffff"
     bordercolor="#666666"
     borderopacity="1"
     objecttolerance="10"
     gridtolerance="10"
     guidetolerance="10"
     inkscape:pageopacity="0"
     inkscape:pageshadow="2"
     inkscape:window-width="2695"
     inkscape:window-height="1263"
     id="namedview16"
     showgrid="false"
     inkscape:zoom="11.8"
     inkscape:cx="11.5"
     inkscape:cy="10"
     inkscape:window-x="0"
     inkscape:window-y="0"
     inkscape:window-maximized="0"
     inkscape:current-layer="svg14" />
  <!-- Generator: Sketch 41.2 (35397) - http://www.bohemiancoding.com/sketch -->
  <title
     id="title2">Fill 83</title>
  <desc
     id="desc4">Created with Sketch.</desc>
  <defs
     id="defs6" />
  <g
     id="05.100.00-OpenSource-Amplitude"
     style="fill:none;fill-rule:evenodd;stroke:none;stroke-width:1"
     transform="matrix(0.5,0,0,0.52631706,0,-0.15672083)">
    <g
       id="HD_05.100.00-521Website_OpenSource-Amplitude"
       transform="translate(-637,-792)"
       style="fill:#607d8b">
      <g
         id="Lead-in">
        <g
           id="Player"
           transform="translate(368,359)">
          <g
             id="Controllers/Status/Info"
             transform="translate(0,357)">
            <path
               d="m 285.61442,90.55051 h 2.06841 v -0.0037 h 0.63701 l -0.67474,-0.683401 c -0.19509,-0.201 -0.31581,-0.475091 -0.31581,-0.778419 0,-0.603001 0.48252,-1.096365 1.07786,-1.096365 0.29749,0 0.56695,0.124255 0.76204,0.321601 l 2.515,2.558184 c 0.19509,0.201 0.31581,0.475091 0.31581,0.774764 0,0.303328 -0.12072,0.577419 -0.31581,0.778419 l -2.515,2.558184 c -0.19509,0.197346 -0.46455,0.317946 -0.76204,0.317946 -0.59534,0 -1.07786,-0.489709 -1.07786,-1.096364 0,-0.299673 0.12072,-0.573765 0.31581,-0.774765 l 0.67294,-0.6834 h -3.15021 c -0.29749,0 -0.56695,-0.124255 -0.76204,-0.321601 l -4.22412,-4.297749 1.52409,-1.549529 3.90866,3.976149 z m -8.48164,-5.525678 -3.90831,-3.976149 h -3.14661 c -0.59498,0 -1.07786,-0.48971 -1.07786,-1.096365 0,-0.606655 0.48288,-1.096364 1.07786,-1.096364 h 3.59285 c 0.29784,0 0.56731,0.124254 0.7624,0.3216 l 4.22412,4.297749 z m 12.03641,-1.735911 c -0.19509,0.197346 -0.46455,0.317946 -0.76204,0.317946 -0.59534,0 -1.07786,-0.489709 -1.07786,-1.096365 0,-0.299672 0.12072,-0.573764 0.31581,-0.774764 l 0.67474,-0.687055 h -2.70542 l -11.18131,11.372956 c -0.19509,0.197346 -0.46456,0.321601 -0.7624,0.321601 h -3.59285 c -0.59498,0 -1.07786,-0.48971 -1.07786,-1.096365 0,-0.606655 0.48288,-1.096365 1.07786,-1.096365 h 3.14661 l 11.18132,-11.372956 c 0.19509,-0.197346 0.46455,-0.3216 0.76204,-0.3216 h 3.15021 l -0.67294,-0.683401 c -0.19509,-0.201 -0.31581,-0.475091 -0.31581,-0.778419 0,-0.603001 0.48252,-1.096365 1.07786,-1.096365 0.29749,0 0.56695,0.124255 0.76204,0.321601 l 2.515,2.558184 c 0.19509,0.201 0.31581,0.475091 0.31581,0.774764 0,0.303328 -0.12072,0.577419 -0.31581,0.778419 z"
               id="Fill-83"
               inkscape:connector-curvature="0" />
          </g>
        </g>
      </g>
    </g>
  </g>
</svg>
